# AST/ASF file generated using VICON BodyLanguage
# -----------------------------------------------
:version 1.10
:name VICON
:units
  mass 1.0
  length 0.45
  angle deg
:documentation
   .ast/.asf automatically generated from VICON data using
   VICON BodyBuilder and BodyLanguage model FoxedUp or BRILLIANT.MOD
:root
   order TX TY TZ RX RY RZ
   axis XYZ
   position 0 0 0  
   orientation 0 0 0 
:bonedata
  begin
     id 1 
     name lhipjoint
     direction 0.566809 -0.746272 0.349008 
     length 2.40479 
     axis 0 0 0  XYZ
  end
  begin
     id 2 
     name lfemur
     direction 0.34202 -0.939693 0  
     length 7.1578  
     axis 0 0 20  XYZ
    dof rx ry rz
    limits (-160.0 20.0)
           (-70.0 70.0)
           (-60.0 70.0)
  end
  begin
     id 3 
     name ltibia
     direction 0.34202 -0.939693 0   
     length 7.49137   
     axis 0 0 20   XYZ
    dof rx
    limits (-10.0 170.0)
  end
  begin
     id 4 
     name lfoot
     direction 0.0665746 -0.182912 0.980873   
     length 2.36784   
     axis -90 7.62852e-016 20   XYZ
    dof rx rz
    limits (-45.0 90.0)
           (-70.0 20.0)
  end
  begin
     id 5 
     name ltoes
     direction 1.53601e-011 -4.22058e-011 1   
     length 1.18966   
     axis -90 7.62852e-016 20   XYZ
    dof rx
    limits (-90.0 20.0)
  end
  begin
     id 6 
     name rhipjoint
     direction -0.550236 -0.756381 0.353735   
     length 2.37265  
     axis 0 0 0  XYZ 
  end
  begin
     id 7 
     name rfemur
     direction -0.34202 -0.939693 0   
     length 7.43386   
     axis 0 0 -20   XYZ
    dof rx ry rz
    limits (-160.0 20.0)
           (-70.0 70.0)
           (-70.0 60.0)
  end
  begin
     id 8 
     name rtibia
     direction -0.34202 -0.939693 0   
     length 7.50908   
     axis 0 0 -20   XYZ
    dof rx
    limits (-10.0 170.0)
 end
 begin
     id 9 
     name rfoot
     direction -0.0683029 -0.187661 0.979856   
     length 2.41173  
     axis -90 -7.62852e-016 -20   XYZ
    dof rx rz
    limits (-45.0 90.0)
           (-20.0 70.0)
  end
  begin
     id 10 
     name rtoes
     direction -1.53528e-011 -4.21968e-011 1   
     length 1.21082   
     axis -90 -7.62852e-016 -20   XYZ
    dof rx
    limits (-90.0 20.0)
  end
  begin
     id 11 
     name lowerback
     direction 0.013823 0.995423 -0.0945635   
     length 2.04495   
     axis 0 0 0   XYZ
    dof rx ry rz
    limits (-20.0 45.0)
           (-30.0 30.0)
           (-30.0 30.0)
  end
  begin
     id 12 
     name upperback
     direction 0.0276657 0.9994 -0.020853   
     length 2.05008   
     axis 0 0 0   XYZ
    dof rx ry rz
    limits (-20.0 45.0)
           (-30.0 30.0)
           (-30.0 30.0)
  end
  begin
     id 13 
     name thorax
     direction 0.019782 0.999531 0.0233827   
     length 2.06488   
     axis 0 0 0   XYZ
    dof rx ry rz
    limits (-20.0 45.0)
           (-30.0 30.0)
           (-30.0 30.0)
  end
  begin
     id 14 
     name lowerneck
     direction -0.0308541 0.994709 0.0979874   
     length 1.75553   
     axis 0 0 0   XYZ
    dof rx ry rz
    limits (-20.0 45.0)
           (-30.0 30.0)
           (-30.0 30.0)
  end
  begin
     id 15 
     name upperneck
     direction 0.0588398 0.995804 -0.0700903   
     length 1.76878   
     axis 0 0 0   XYZ
    dof rx ry rz
    limits (-20.0 45.0)
           (-30.0 30.0)
           (-30.0 30.0)
  end
  begin
     id 16
     name head
     direction 0.0209966 0.999159 -0.0352225  
     length 1.77193  
     axis 0 0 0   XYZ
    dof rx ry rz
    limits (-20.0 45.0)
           (-30.0 30.0)
           (-30.0 30.0)
  end
  begin
     id 17 
     name lclavicle
     direction 0.938182 0.335073 -0.0868338  
     length 3.58396  
     axis 0 0 0   XYZ
    dof ry rz
    limits (-20.0 10.0)
           (0.0 20.0)
  end
  begin
     id 18 
     name lhumerus
     direction 1 -4.48971e-011 -1.26313e-017   
     length 4.983   
     axis 180 -30 -90   XYZ
    dof rx ry rz
    limits (-60.0 90.0)
           (-90.0 90.0)
           (-90.0 90.0)
  end
  begin
     id 19
     name lradius
     direction 1 -4.48948e-011 -5.89033e-027   
     length 3.48356   
     axis 180 -30 -90   XYZ
    dof rx
    limits (-10.0 170.0)
  end
  begin
     id 20
     name lwrist
     direction 1 -4.48977e-011 -1.48983e-026   
     length 1.74178   
     axis 9.0955e-015 90 90   XYZ
    dof ry
    limits (-180.0 0.0)
 end
  begin
     id 21 
     name lhand
     direction 1 -4.49046e-011 -2.98066e-026   
     length 0.715259   
     axis 1.90115e-014 90 90   XYZ
    dof rx rz
    limits (-90.0 90.0)
           (-45.0 45.0)
  end
  begin
     id 22 
     name lfingers
     direction 1 -4.48907e-011 -5.95731e-026   
     length 0.576661   
     axis 3.80223e-014 90 90   XYZ
    dof rx
    limits (0.0 90.0)
  end
  begin
     id 23
     name lthumb
     direction 0.707107 -6.34963e-011 0.707107   
     length 0.827973   
     axis -90 45 -3.84942e-014   XYZ
    dof rx rz
    limits (-45.0 45.0)
           (-45.0 45.0)
  end
  begin
     id 24 
     name rclavicle
     direction -0.909637 0.398485 -0.11735   
     length 3.44819  
     axis 0 0 0   XYZ 
    dof ry rz
    limits (-10.0 20.0)
           (-20.0 0.0)
  end
  begin
     id 25 
     name rhumerus
     direction -1 -4.48978e-011 -1.09333e-027  
     length 5.2419   
     axis 180 30 90   XYZ
    dof rx ry rz
    limits (-90.0 60.0)
           (-90.0 90.0)
           (-90.0 90.0)
  end
  begin
     id 26 
     name rradius
     direction -1 -4.48953e-011 -7.61841e-027   
     length 3.44417   
     axis 180 30 90   XYZ
    dof rx
    limits (-10.0 170.0)
  end
  begin
     id 27 
     name rwrist
     direction -1 -4.48977e-011 -1.48983e-026   
     length 1.72209   
     axis 9.0955e-015 -90 -90   XYZ
    dof ry
    limits (-180.0 0.0)
  end
  begin
     id 28
     name rhand
     direction -1 -4.49027e-011 -2.98038e-026   
     length 0.622529   
     axis 1.90115e-014 -90 -90   XYZ
    dof rx rz
    limits (-90.0 90.0)
           (-45.0 45.0)
  end
  begin
     id 29
     name rfingers
     direction -1 -4.48838e-011 -5.95531e-026   
     length 0.501899   
     axis 3.80223e-014 -90 -90   XYZ
    dof rx
    limits (0.0 90.0)
  end
  begin
     id 30
     name rthumb
     direction -0.707107 -6.34937e-011 0.707107   
     length 0.720629   
     axis -90 -45 3.84942e-014   XYZ
    dof rx rz
    limits (-45.0 45.0)
           (-45.0 45.0)
  end
:hierarchy
  begin
    root lhipjoint rhipjoint lowerback
    lhipjoint lfemur
    lfemur ltibia
    ltibia lfoot
    lfoot ltoes
    rhipjoint rfemur
    rfemur rtibia
    rtibia rfoot
    rfoot rtoes
    lowerback upperback
    upperback thorax
    thorax lowerneck lclavicle rclavicle
    lowerneck upperneck
    upperneck head
    lclavicle lhumerus
    lhumerus lradius
    lradius lwrist
    lwrist lhand lthumb
    lhand lfingers
    rclavicle rhumerus
    rhumerus rradius
    rradius rwrist
    rwrist rhand rthumb
    rhand rfingers
  end

#!OML:ASF H:\Terrain\Patient Classification 1\PLAYGROUND\JustinFriday\JustinFriday.ASF
:FULLY-SPECIFIED
:DEGREES
101
root -1.05956 17.1777 14.4517 89.3424 -78.394 -86.0566
lowerback 9.84806 1.68233 5.74864
upperback 3.43385 2.64177 -0.458249
thorax -1.64661 1.29528 -3.99365
lowerneck 5.41811 -13.8341 -15.4454
upperneck 5.1542 -19.6201 10.25
head 3.19408 -9.99083 4.81094
rclavicle 2.94201e-014 -4.45278e-014
rhumerus -25.15 5.59364 -76.61
rradius 50.2157
rwrist -13.4694
rhand -15.5538 -23.7156
rfingers 7.12502
rthumb 10.6306 -53.4267
lclavicle 2.94201e-014 -4.45278e-014
lhumerus -34.7526 17.7553 74.0477
lradius 34.4669
lwrist 2.88612
lhand -18.2714 -6.06388
lfingers 7.12502
lthumb 8.00837 23.7644
rfemur 10.6673 3.39133 34.8057
rtibia 17.5528
rfoot -20.265 -17.2828
rtoes 3.4757
lfemur -33.6423 -0.222159 1.82683
ltibia 30.9552
lfoot -6.30245 -2.08732
ltoes -4.6642
102
root -1.20366 17.1686 14.5028 89.7236 -77.9689 -86.5464
lowerback 9.89698 1.60288 6.25361
upperback 3.47486 2.58516 -0.354077
thorax -1.61618 1.26931 -4.16416
lowerneck 5.42909 -13.7752 -15.6199
upperneck 5.64902 -19.6003 10.3921
head 3.37042 -9.98928 4.85851
rclavicle 3.49861e-014 -1.11319e-014
rhumerus -25.5283 4.17899 -76.7976
rradius 50.5491
rwrist -11.3866
rhand -14.3706 -23.1914
rfingers 7.12502
rthumb 11.7718 -52.8406
lclavicle 3.49861e-014 -1.11319e-014
lhumerus -35.0111 17.9649 73.9205
lradius 34.1745
lwrist 3.0655
lhand -18.7272 -6.25237
lfingers 7.12502
lthumb 7.56845 23.5922
rfemur 11.0805 3.53586 35.2649
rtibia 17.8867
rfoot -19.3189 -18.2671
rtoes 1.83125
lfemur -33.5326 0.33629 1.9245
ltibia 31.5263
lfoot -5.17821 -2.60835
ltoes -3.90852
103
root -1.35182 17.1727 14.5437 91.834 -78.2323 -88.8805
lowerback 10.0376 1.73158 5.84792
upperback 3.61201 2.71373 -0.401288
thorax -1.55408 1.33382 -4.00054
lowerneck 5.11095 -13.699 -14.2113
upperneck 5.86521 -19.3535 9.49333
head 3.23058 -9.84341 4.41635
rclavicle 2.78299e-014 1.43125e-014
rhumerus -25.4891 5.49088 -77.0611
rradius 50.4177
rwrist -12.5645
rhand -15.3354 -23.0642
rfingers 7.12502
rthumb 10.8412 -52.7644
lclavicle 2.78299e-014 1.43125e-014
lhumerus -34.9993 18.122 73.9251
lradius 33.7751
lwrist 3.34117
lhand -19.2046 -6.28409
lfingers 7.12502
lthumb 7.10761 23.5766
rfemur 11.4601 4.33755 35.1465
rtibia 18.6074
rfoot -18.5417 -19.4883
rtoes 0.192255
lfemur -33.0409 0.907992 1.3777
ltibia 32.0675
lfoot -4.42314 -2.77299
ltoes -5.44152
104
root -1.50845 17.1843 14.5833 94.6807 -78.7268 -91.9726
lowerback 10.1289 1.91587 5.21569
upperback 3.73577 2.8896 -0.553629
thorax -1.48245 1.42108 -3.82243
lowerneck 5.21094 -13.6338 -13.6747
upperneck 5.86956 -19.2377 9.17702
head 3.12062 -9.78276 4.2776
rclavicle -3.4191e-014 2.54444e-014
rhumerus -25.5921 5.7006 -77.3981
rradius 50.3099
rwrist -12.7667
rhand -15.7517 -23.0894
rfingers 7.12502
rthumb 10.4397 -52.8102
lclavicle -3.4191e-014 2.54444e-014
lhumerus -35.0248 18.3163 73.761
lradius 33.328
lwrist 3.26799
lhand -19.48 -6.27084
lfingers 7.12502
lthumb 6.84181 23.5986
rfemur 11.5939 4.67469 34.5266
rtibia 19.8158
rfoot -17.8891 -19.9278
rtoes -2.0041
lfemur -32.3098 1.25731 0.674487
ltibia 32.4844
lfoot -4.0604 -2.71669
ltoes -6.78739
105
root -1.66256 17.1955 14.6282 96.5496 -79.0617 -94.0227
lowerback 10.216 2.05323 4.83995
upperback 3.78486 3.03406 -0.614188
thorax -1.48243 1.49061 -3.69175
lowerneck 5.4454 -13.66 -14.7525
upperneck 6.32423 -19.4308 9.8522
head 3.41307 -9.90333 4.58978
rclavicle -4.37326e-015 9.54166e-015
rhumerus -25.8699 5.2881 -77.5899
rradius 50.1144
rwrist -12.1387
rhand -15.6589 -23.4537
rfingers 7.12502
rthumb 10.5292 -53.17
lclavicle -4.37326e-015 9.54166e-015
lhumerus -35.0987 18.5733 73.6115
lradius 32.6859
lwrist 2.99451
lhand -19.2696 -6.23992
lfingers 7.12502
lthumb 7.04494 23.6228
rfemur 11.2931 3.83842 33.6505
rtibia 21.4853
rfoot -17.0496 -19.6381
rtoes -5.93337
lfemur -31.6872 1.45446 0.135193
ltibia 32.7916
lfoot -3.75587 -2.84943
ltoes -5.7059
